<svg xmlns="http://www.w3.org/2000/svg" xml:space="preserve" id="_x31_0" x="0" y="0" style="width:256px;height:256px;opacity:1" version="1.1" viewBox="0 0 512 512"><style>.st0{fill:#374149}</style><path d="M399.281 358.386c1.851-6.922 13.742-50.817 21.246-87.961 9.215-2.981 18.024-7.266 26.043-13.16 36.254-26.727 45.813-79.563 48.282-108.383 1.027-11.754-6.821-22.41-18.336-24.91-18.891-4.16-49.008-8.39-77.742-2.816-.84.148-1.75.21-2.578.366l23.852-63.754c7.094-18.883.207-39.786-16.723-50.786-16.926-11-38.824-8.839-53.214 5.313l-36.836 36.188c-4.352-.962-9.184-1.512-14.528-1.512h-85.496c-5.343 0-10.176.55-14.527 1.512l-36.836-36.188C147.491-1.821 125.597-4.017 108.67 6.983c-16.93 11-23.816 31.871-16.722 50.786l15.453 41.301 8.332 22.516c-29.441-6.34-60.781-1.895-80.222 2.386-11.547 2.5-19.359 13.156-18.367 24.91 2.469 28.82 12.027 81.656 48.317 108.383 8.019 5.894 16.824 10.179 26.042 13.16 7.504 37.11 19.325 80.969 21.141 87.687.07.137 3.531 13.774 4.149 24.879 0 3.492-.07 7.226-.137 11.062-.45 25.051-.961 56.27 13.328 77.754C148.523 499.598 187.378 512 256.014 512c68.602 0 107.458-12.402 125.997-40.191 14.324-21.485 13.774-52.703 13.328-77.754-.066-3.836-.102-7.57-.137-11.062.309-5.519 1.336-11.687 2.262-16.45.961-4.766 1.817-8.157 1.817-8.157zM376.526 39.194c1.184-1.179 2.875-1.606 4.469-1.301.203.039.39.106.586.168.418.133.836.274 1.218.516 1.988 1.305 2.809 3.773 1.953 6l-10.867 29.027-5.262 13.844c-7.82-8.973-14.656-14.993-19.406-18.786-.48-.41-.992-.789-1.472-1.195l28.781-28.273zm-247.331-.616a5.143 5.143 0 0 1 2.777-.821c1.266 0 2.535.481 3.528 1.438l26.437 25.965 2.336 2.317c-.476.402-.988.781-1.496 1.187-4.113 3.262-9.762 8.313-16.218 15.328-1.09 1.145-2.176 2.282-3.274 3.481l-16.043-42.894c-.825-2.229-.036-4.697 1.953-6.001zm251.48 238.051c-6.031 27.172-13.778 57.086-17.856 72.094-.168.722-4.519 17.785-5.273 32.828l-.035.926c0 3.871.066 7.985.137 12.196.343 19.843.789 44.546-6.993 56.234-10.347 15.519-42.214 23.402-94.641 23.402-52.461 0-84.297-7.883-94.679-23.402-7.778-11.688-7.333-36.391-6.989-56.234.066-4.211.137-8.325.137-12.196l-.035-.926c-.754-15.043-5.106-32.106-5.344-33.066-4.042-14.871-11.789-44.718-17.785-71.855-4.625-20.902-8.222-40.196-8.328-49.895-.274-20.042 7.094-44.855 21.898-73.809.035-.034.035-.101.066-.136a231.137 231.137 0 0 1 8.328-14.938c.446-.723.855-1.442 1.301-2.126 9.734-15.594 18.848-25.804 25.254-31.938a93.025 93.025 0 0 1 6.305-5.55c1.199-.961 2.398-1.918 3.566-2.879.168-.137.34-.273.512-.414 6.168-5.07 10.246-8.391 16.484-9.66.906-.192 1.86-.329 2.86-.43.152-.015.308-.031.465-.042a36.124 36.124 0 0 1 3.218-.145h85.496c2.466 0 4.626.207 6.543.618 6.238 1.269 10.317 4.59 16.481 9.66.172.141.344.277.515.414 1.199.962 2.363 1.918 3.563 2.879 1.578 1.234 3.769 3.082 6.374 5.586 6.406 6.133 15.489 16.344 25.188 31.902.445.684.855 1.402 1.301 2.126a236.216 236.216 0 0 1 4.07 6.98c.054.098.109.199.168.301a230.139 230.139 0 0 1 4.09 7.657c.031.035.031.102.066.136 14.805 28.954 22.172 53.766 21.93 73.809-.1 9.697-3.733 28.99-8.358 49.893z" class="st0" style="fill:#4b4b4b"/><path d="M194.405 263.21c4.446 0 8.481-2.074 11.61-5.656 4.219-4.672 6.859-11.91 6.859-20.164 0-10.402-4.222-19.223-10.48-23.297-2.41-1.618-5.125-2.485-7.989-2.485-10.406 0-18.507 11.344-18.507 25.782 0 14.473 8.101 25.82 18.507 25.82zm-3.996-38.41c2.223 0 3.996 2.149 3.996 4.902 0 2.79-1.773 4.938-3.996 4.938-2.262 0-4.07-2.148-4.07-4.938 0-2.753 1.808-4.902 4.07-4.902zM317.593 263.433c10.367 0 18.508-11.347 18.508-25.82 0-14.438-8.141-25.782-18.508-25.782-2.863 0-5.539.867-7.914 2.41-6.294 4.07-10.555 12.89-10.555 23.371 0 8.254 2.641 15.527 6.898 20.203 3.091 3.544 7.125 5.618 11.571 5.618zm-4.07-38.41c2.262 0 4.035 2.148 4.035 4.898 0 2.793-1.774 4.938-4.035 4.938-2.222 0-3.996-2.145-3.996-4.938-.001-2.75 1.773-4.898 3.996-4.898zM193.741 408.504c-3.332 3.535-3.206 9.09.29 12.461 3.535 3.375 17.434 16.652 20.969 20.023 1.726 1.602 3.906 2.43 6.086 2.43a8.817 8.817 0 0 0 6.375-2.714c8.882-9.297 8.512-24.098-.782-32.942-9.293-8.876-24.055-8.548-32.938.742zM285.292 407.762c-9.293 8.844-9.621 23.645-.785 32.942a8.826 8.826 0 0 0 6.374 2.714c2.18 0 4.402-.828 6.086-2.43 3.539-3.371 17.438-16.648 20.973-20.023a8.792 8.792 0 0 0 .289-12.461c-8.882-9.29-23.644-9.618-32.937-.742zM336.851 359.926c-25.633-10.824-52.805-16.309-80.836-16.309-28.027 0-55.234 5.485-80.832 16.309-3.496 1.477-5.141 5.484-3.668 8.981 1.473 3.496 5.516 5.105 8.977 3.633 23.918-10.11 49.313-15.215 75.523-15.215 26.18 0 51.57 5.106 75.489 15.215a6.738 6.738 0 0 0 2.676.546 6.84 6.84 0 0 0 6.304-4.179 6.868 6.868 0 0 0-3.633-8.981z" class="st0" style="fill:#4b4b4b"/></svg>