<svg xmlns="http://www.w3.org/2000/svg" xml:space="preserve" id="_x31_0" x="0" y="0" style="width:256px;height:256px;opacity:1" version="1.1" viewBox="0 0 512 512"><style>.st0{fill:#374149}</style><path d="M442.801 133.424c-.066-.133-.203-.27-.34-.406-44.43-55.113-116.011-95.054-215.418-95.054-28.645 0-66.34 2.043-103.969 17.488-22.59 9.321-41.91 22.383-57.766 38.989-30.891 27.011-47.153 60.965-55.59 92.125C2.305 213.849 0 233.608 0 264.224c0 54.324 11.762 95.574 43.195 127.282 33.817 34.086 84.645 49.874 139.282 43.203 11.5-1.36 21.84-3.196 30.957-4.762 28.168-4.898 46.813-8.098 82.262 1.294 7.688 2.042 16.125 7.484 25.922 13.882 19.192 12.45 44.434 28.914 81.039 28.914 6.531 0 13.336-.543 20.618-1.699C482.129 463.017 512 413.006 512 323.736c0-67.359-22.32-137.238-69.199-190.312zM159.953 336.799c-31.027 0-59.195-9.32-80.152-26.942-27.625-23.203-42.594-60.828-34.699-110.637 1.086-6.871 2.586-13.949 4.558-21.297C79.187 68.787 184.383 65.181 227.043 65.181c164.726 0 237.938 118.661 243.042 210.52 2.45 44.633-11.16 83.008-38.242 98.316a53.4 53.4 0 0 1-17.348 6.262c-4.832.882-9.324 1.293-13.676 1.293-39.398 0-62.734-32.051-97.301-44.434-18.64-6.734-35.722-8.981-52.594-8.981-23.203 0-45.996 4.355-71.511 7.418-6.6.817-13.062 1.224-19.46 1.224zm-50.961 52.187c-.274.274-.613.547-.886.817-11.226 10.141-30.551 7.824-43.817-5.442-11.226-11.226-14.629-26.809-9.32-38.106a23.144 23.144 0 0 1 4.625-6.598c2.176-2.176 4.762-3.878 7.622-5.106 8.164-3.398 18.301-2.449 27.418 2.454l.07.066c3.402 1.836 6.602 4.218 9.594 7.21 1.09 1.09 2.11 2.18 2.992 3.336l.07.066c2.516 3.062 4.489 6.398 5.852 9.801 4.827 11.362 3.605 23.678-4.22 31.502z" class="st0" style="fill:#000"/><path d="M369.519 337.346c.543 5.918 4.63 10.886 10.344 12.722 21.16 6.465 43.207-.41 57.153-15.786a54.493 54.493 0 0 0 11.91-20.82l.066-.274c2.383-7.824-1.906-15.922-9.73-18.371-1.43-.406-2.855-.679-4.285-.679h-.137c-2.313 0-4.762.613-6.871 1.77l-50.691 27.078a14.743 14.743 0 0 0-7.759 14.36zM250.652 278.216l-17.488-17.418 29.258-29.258 36.062 36.062-18.914 18.914c-3.946 4.016-3.946 10.481 0 14.426 2.039 2.038 4.625 2.992 7.281 2.992 2.586 0 5.172-.954 7.211-2.992l18.914-18.848 2.859 2.855a10.081 10.081 0 0 0 7.211 2.996c2.656 0 5.242-.953 7.214-2.996 4.012-3.945 4.012-10.41 0-14.422l-2.859-2.859 27.965-28.031 24.086 24.086-28.37 28.371c-3.95 3.95-3.95 10.41 0 14.426 2.038 1.973 4.625 2.992 7.21 2.992 2.653 0 5.238-1.019 7.215-2.992l28.371-28.375 9.32 9.325c2.043 1.973 4.629 2.992 7.215 2.992a10.14 10.14 0 0 0 7.21-2.992c4.016-3.946 4.016-10.41 0-14.426l-9.32-9.321 11.973-11.977a9.918 9.918 0 0 0 2.859-5.851c.477-2.992-.477-6.191-2.859-8.57-.203-.207-.406-.41-.61-.477-3.95-3.472-10.004-3.266-13.813.477l-11.976 11.973-24.086-24.086 20.344-20.344a10.224 10.224 0 0 0 0-14.492c-3.946-3.95-10.41-3.95-14.426 0l-20.344 20.41-36.062-36.062 25.515-25.582c.34-.34.68-.746.954-1.157a10.007 10.007 0 0 0-.954-13.27c-3.945-4.011-10.41-4.011-14.422 0l-3.473 3.473-22.042 22.114-6.466-6.465c-4.015-4.016-10.48-4.016-14.426 0-4.015 3.945-4.015 10.41 0 14.426l6.465 6.461-28.035 27.969-33.476-33.477 40.148-40.144c1.836-1.84 2.856-4.29 2.922-6.738.206-2.789-.813-5.578-2.922-7.688-3.949-4.015-10.414-4.015-14.426 0l-5.172 5.102-34.973 35.043-12.586-12.59c-4.016-4.012-10.481-4.012-14.426 0-4.016 3.949-4.016 10.41 0 14.426l12.586 12.59-29.258 29.188-27.215-27.215 50.692-50.691 11.496-11.5c4.015-4.016 4.015-10.477 0-14.422-3.946-4.016-10.41-4.016-14.422 0l-32.52 32.523-29.668 29.664-10.137-10.07-5.922-5.918c-3.946-4.016-10.41-4.016-14.422 0-4.015 3.945-4.015 10.41 0 14.422l5.715 5.715 10.34 10.277-31.91 31.91-.543.543c-2.926 2.926-3.742 7.144-2.312 10.75.406 1.363 1.222 2.586 2.312 3.676a10.145 10.145 0 0 0 7.211 2.992c2.586 0 5.238-1.019 7.211-2.992l32.457-32.457 27.215 27.218-30.141 30.141c-3.946 4.015-3.946 10.48 0 14.426a10.1 10.1 0 0 0 7.21 2.992c2.657 0 5.242-.953 7.282-2.992l30.074-30.074 33.477 33.477-11.364 11.363c-4.015 4.016-4.015 10.477 0 14.422 1.973 2.043 4.559 2.996 7.215 2.996 2.582 0 5.168-.953 7.211-2.996l11.363-11.359 17.484 17.418c1.977 2.038 4.558 2.992 7.215 2.992 2.586 0 5.238-.954 7.21-2.992 3.948-3.951 3.948-10.412.002-14.428zm-31.91-31.843-33.477-33.477 29.258-29.258L248 217.115l-29.258 29.258zm58.106-29.258 28.035-27.965 36.062 36.063-28.035 27.965-36.062-36.063z" class="st0" style="fill:#000"/></svg>