<svg xmlns="http://www.w3.org/2000/svg" xml:space="preserve" id="_x31_0" x="0" y="0" style="width:256px;height:256px;opacity:1" version="1.1" viewBox="0 0 512 512"><style>.st0{fill:#374149}</style><path d="M88.055 243.078 20.148 214.68c-6.55-2.75-14.066.625-16.371 7.339l-3.102 8.997c-2.316 6.722 1.531 13.992 8.387 15.878l71 19.399c6.254 1.714 12.766-1.723 14.871-7.86 2.11-6.136-.902-12.844-6.878-15.355zM87.172 382.325l-68.102 27.93c-6.578 2.695-9.508 10.382-6.395 16.77l4.176 8.558c3.114 6.379 10.981 8.809 17.157 5.289l63.93-36.488c5.621-3.207 7.793-10.242 4.95-16.066-2.841-5.833-9.724-8.454-15.716-5.993zM181.153 160.976c5.821-2.839 8.442-9.726 5.985-15.722l-27.926-68.102c-2.699-6.582-10.386-9.512-16.778-6.387l-8.554 4.164c-6.39 3.126-8.813 10.985-5.293 17.157l36.488 63.93c3.21 5.632 10.246 7.804 16.078 4.96zM501.307 304.305c-17.821 3.329-52.54 9.93-64.196 12.829-30.649-29.728-110.571-104.775-190.985-132.154-3.574-1.234-7.523.676-8.878 4.192-4.688 12.21-15.539 44.278-30.586 112.234-15.11 68.02-18.871 101.63-19.797 114.642-.246 3.824 2.465 7.152 6.226 7.586 84.485 9.188 188.642-24.914 229.036-38.914 9.313 7.586 37.989 28.242 52.727 38.852 4.809 3.454 11.531 1.418 13.687-4.133 10.238-26.578 21.462-77.207 23.434-105.574.434-5.92-4.809-10.669-10.668-9.56zm-161.075-13.75c-31.883 1.11-62.532 4.5-91.082 9.863-3.356.649-6.422-1.043-7.985-3.691-.082-.141-.137-.29-.207-.43a7.729 7.729 0 0 1-.847-3.031c-.012-.207-.004-.41 0-.622.011-.527.035-1.058.156-1.598 6.043-25.84 11.223-45.328 15.356-59.695 1.359-4.626 6.476-6.906 10.793-4.809 21.523 10.543 47.547 26.394 78.317 50.195 5.733 4.443 2.776 13.572-4.501 13.818z" class="st0" style="fill:#4b4b4b"/></svg>