<svg xmlns="http://www.w3.org/2000/svg" xml:space="preserve" id="_x31_0" x="0" y="0" style="width:256px;height:256px;opacity:1" version="1.1" viewBox="0 0 512 512"><style>.st0{fill:#374149}</style><path d="m511.867 284.242.133-.094-98.367-98.574V76.094h-54.844v32.027l-.113 22.426L256.183 27.848l-.105-.102-.11-.114L40.465 243.598.094 284.019l.023.016-.117.114 50.809 34.515 1.218-1.218.782-.649v167.57h406.387v-98.398l.11-69.262 1.961 1.957 42.649-29.012 7.976-5.386-.025-.024zM255.969 112.816 424.68 282.012v167.839H225.457V284.149h-78.074v165.702H87.324V282.012l168.481-169.031.164-.165z" class="st0" style="fill:#4b4b4b"/><path d="M286.004 374.766v.16h80.832v-90.774h-80.832v90.059l-.004.555h.004zm20.707-20.551v-49.356h39.418v49.356h-39.418z" class="st0" style="fill:#4b4b4b"/></svg>